# xmcd CD database file
#
# Track frame offsets:
#	150
#	21965
#	42615
#	58850
#	76887
#	103010
#	117565
#	138955
#	152747
#	168652
#	191372
#	211940
#
# Disc length: 3186 seconds
#
# Revision: 1
# Processed by: cddbd v1.5.2PL0 Copyright (c) Steve Scherf et al.
# Submitted via: CDex 1.51
#
DISCID=a70c700c
DTITLE=Olu Dara - In The World From Natchez To New York
DYEAR=1900
DGENRE=Blues
TTITLE0=Okra
TTITLE1=Rain Shower
TTITLE2=Natchez Shopping Blues
TTITLE3=You Lips
TTITLE4=Harlem Country Girl
TTITLE5=Zora
TTITLE6=Young Mama
TTITLE7=Bubber (If Only)
TTITLE8=Father Blues
TTITLE9=Jungle Jay
TTITLE10=Kiane 
TTITLE11=Jungle Jay (Instrumental Remix)
EXTD=
EXTT0=
EXTT1=
EXTT2=
EXTT3=
EXTT4=
EXTT5=
EXTT6=
EXTT7=
EXTT8=
EXTT9=
EXTT10=
EXTT11=
PLAYORDER=
